<svg xmlns="http://www.w3.org/2000/svg" viewBox="0 0 452.4 219.4" width="452.4" height="219.4"><linearGradient id="a" x1="260.24" x2="421.21" y1="-17.41" y2="178.81" gradientUnits="userSpaceOnUse"><stop offset=".26" stop-color="#ff4713"/><stop offset=".87" stop-color="#ffbe9f"/></linearGradient><path fill="url(#a)" d="M437.8 37.7L344.6 2.6c-5.6-2.1-11.7-2.1-17.3 0l-93.2 35.1c-4.3 1.9-8 5-10.6 8.9-2.6 3.9-4.1 8.5-4.1 13.4v30c0 13.4 10.9 24.2 24.2 24.2H428c13.4 0 24.2-10.9 24.2-24.2V60c0-5-1.5-9.6-4.1-13.4-2.3-3.9-6-7-10.3-8.9z"/><path fill="#ff7849" d="M428.2 114.2h-46v24.3c0 3.9 4.3 6.3 7.6 4.2l49.7-31.3c-3.3 1.8-7.2 2.8-11.3 2.8z"/><path d="M37.4 161.7c2-2.3 4.6-4.5 5.3-5-.5 0-4.1.7-7.1.7H2.5v-20.2h69.9v14.7L35 193.1c-2.6 3-5.5 5.1-6 5.5.3 0 4-.8 8.4-.8h34.9V218H0v-14.5l37.4-41.8zM101.5 97c8.3 0 15.2 6.9 15.2 15.2 0 8.3-6.9 15.2-15.2 15.2s-15.2-6.9-15.2-15.2c0-8.2 6.9-15.2 15.2-15.2zM89.4 217.9v-80.7H113v80.7H89.4zm46.1 0v-80.7h23.1v4.1c0 1.5-.3 4.1-.7 6.6 4.8-7.8 12.6-12.7 22.1-12.7 11.7 0 18.8 5.5 22.6 13.2 5.8-7.8 14.7-13.2 25.6-13.2 16.5 0 26.6 11.2 26.6 30.6v52.1h-23.1v-50.4c0-8.8-6.3-13.2-12.6-13.2s-12.6 4.5-12.6 13.9V218h-23.1v-51c0-8.3-5.8-12.2-11.9-12.2-6.3 0-12.7 4.3-13.1 12.6V218h-22.9zm135.7-41.5c0-24 18.5-42 42.1-42s42.1 18 42.1 42-18.5 42-42.1 42-42.1-18.1-42.1-42zm61.7 0c0-12.2-7.8-21.3-19.5-21.3-11.9 0-19.7 9.1-19.7 21.3 0 12.4 8.1 21.5 19.7 21.5 11.7 0 19.5-9.1 19.5-21.5z" class="st2"/></svg>
